<svg xmlns="http://www.w3.org/2000/svg" viewBox="0 0 640 400" width="640" height="400" role="img" aria-label="OpenFaceFX talking-head lip-sync demo">
  <defs>
    <linearGradient id="bg" x1="0" y1="0" x2="0" y2="1">
      <stop offset="0" stop-color="#0f1420"/><stop offset="1" stop-color="#0a0d14"/>
    </linearGradient>
    <radialGradient id="face" cx="0.5" cy="0.42" r="0.7">
      <stop offset="0" stop-color="#1b2333"/><stop offset="1" stop-color="#111725"/>
    </radialGradient>
  </defs>
  <rect x="0" y="0" width="640" height="400" rx="18" fill="url(#bg)"/>
  <rect x="1" y="1" width="638" height="398" rx="17" fill="none" stroke="#1e2635" stroke-width="1.5"/>
  <ellipse cx="320" cy="185" rx="150" ry="150" fill="url(#face)" stroke="#2a3448" stroke-width="2"/>
  <path d="M 252 128 Q 270 122 288 128" fill="none" stroke="#3a4458" stroke-width="4" stroke-linecap="round" opacity="0.55"/>
  <path d="M 352 128 Q 370 122 388 128" fill="none" stroke="#3a4458" stroke-width="4" stroke-linecap="round" opacity="0.55"/>
  <g fill="#f4b942">
    <ellipse cx="270" cy="150" rx="13" ry="9"><animate attributeName="ry" dur="3.20s" repeatCount="indefinite" keyTimes="0;0.90;0.93;0.96;1" values="9;9;1;9;9" calcMode="linear"/></ellipse>
    <ellipse cx="370" cy="150" rx="13" ry="9"><animate attributeName="ry" dur="3.20s" repeatCount="indefinite" keyTimes="0;0.90;0.93;0.96;1" values="9;9;1;9;9" calcMode="linear"/></ellipse>
  </g>
  <circle cx="270" cy="150" r="3.5" fill="#0a0d14"/>
  <circle cx="370" cy="150" r="3.5" fill="#0a0d14"/>
  <g transform="translate(147.5,88.2) scale(1.15)">
    <g opacity="0">
      <path d="M 104.0 120.0 Q 150.0 113.0 196.0 120.0 L 196.0 120.0 Q 150.0 132.0 104.0 120.0 Z" fill="#05070b"/>
      <path d="M 104.0 120.0 Q 150.0 113.0 196.0 120.0" fill="none" stroke="#f4b942" stroke-width="2.5" stroke-linecap="round"/>
      <path d="M 104.0 120.0 Q 150.0 132.0 196.0 120.0" fill="none" stroke="#f4b942" stroke-width="2.5" stroke-linecap="round"/>
      <animate attributeName="opacity" calcMode="discrete" dur="3.20s" repeatCount="indefinite" keyTimes="0.0000;0.0208;0.0417;0.0625;0.0833;0.1042;0.1250;0.1458;0.1667;0.1875;0.2083;0.2292;0.2500;0.2708;0.2917;0.3125;0.3333;0.3542;0.3750;0.3958;0.4167;0.4375;0.4583;0.4792;0.5000;0.5208;0.5417;0.5625;0.5833;0.6042;0.6250;0.6458;0.6667;0.6875;0.7083;0.7292;0.7500;0.7708;0.7917;0.8125;0.8333;0.8542;0.8750;0.8958;0.9167;0.9375;0.9583;0.9792;1" values="1;1;0;0;0;0;0;0;0;0;0;0;0;0;0;0;0;0;0;0;0;0;0;0;0;0;0;0;0;0;0;0;0;0;0;0;0;0;0;0;0;0;0;0;0;0;0;1;1"/>
    </g>
    <g opacity="0">
      <path d="M 104.0 120.0 Q 150.0 114.0 196.0 120.0 L 196.0 120.0 Q 150.0 132.0 104.0 120.0 Z" fill="#05070b"/>
      <path d="M 104.0 120.0 Q 150.0 114.0 196.0 120.0" fill="none" stroke="#f4b942" stroke-width="2.5" stroke-linecap="round"/>
      <path d="M 104.0 120.0 Q 150.0 132.0 196.0 120.0" fill="none" stroke="#f4b942" stroke-width="2.5" stroke-linecap="round"/>
      <animate attributeName="opacity" calcMode="discrete" dur="3.20s" repeatCount="indefinite" keyTimes="0.0000;0.0208;0.0417;0.0625;0.0833;0.1042;0.1250;0.1458;0.1667;0.1875;0.2083;0.2292;0.2500;0.2708;0.2917;0.3125;0.3333;0.3542;0.3750;0.3958;0.4167;0.4375;0.4583;0.4792;0.5000;0.5208;0.5417;0.5625;0.5833;0.6042;0.6250;0.6458;0.6667;0.6875;0.7083;0.7292;0.7500;0.7708;0.7917;0.8125;0.8333;0.8542;0.8750;0.8958;0.9167;0.9375;0.9583;0.9792;1" values="0;0;0;0;1;0;0;0;0;0;0;0;0;0;0;0;0;0;0;0;0;0;0;0;0;0;0;0;0;0;0;0;0;0;0;0;0;0;0;0;0;0;0;0;0;0;0;0;0"/>
    </g>
    <g opacity="0">
      <path d="M 104.0 120.0 Q 150.0 112.7 196.0 120.0 L 196.0 120.0 Q 150.0 132.0 104.0 120.0 Z" fill="#05070b"/>
      <path d="M 104.0 120.0 Q 150.0 112.7 196.0 120.0" fill="none" stroke="#f4b942" stroke-width="2.5" stroke-linecap="round"/>
      <path d="M 104.0 120.0 Q 150.0 132.0 196.0 120.0" fill="none" stroke="#f4b942" stroke-width="2.5" stroke-linecap="round"/>
      <animate attributeName="opacity" calcMode="discrete" dur="3.20s" repeatCount="indefinite" keyTimes="0.0000;0.0208;0.0417;0.0625;0.0833;0.1042;0.1250;0.1458;0.1667;0.1875;0.2083;0.2292;0.2500;0.2708;0.2917;0.3125;0.3333;0.3542;0.3750;0.3958;0.4167;0.4375;0.4583;0.4792;0.5000;0.5208;0.5417;0.5625;0.5833;0.6042;0.6250;0.6458;0.6667;0.6875;0.7083;0.7292;0.7500;0.7708;0.7917;0.8125;0.8333;0.8542;0.8750;0.8958;0.9167;0.9375;0.9583;0.9792;1" values="0;0;0;0;0;0;0;0;0;0;0;0;0;0;0;0;0;0;0;0;0;0;0;0;0;0;1;0;0;0;0;0;0;0;0;0;0;0;0;0;0;0;0;0;0;0;0;0;0"/>
    </g>
    <g opacity="0">
      <path d="M 104.0 120.0 Q 150.0 112.0 196.0 120.0 L 196.0 120.0 Q 150.0 132.0 104.0 120.0 Z" fill="#05070b"/>
      <path d="M 104.0 120.0 Q 150.0 112.0 196.0 120.0" fill="none" stroke="#f4b942" stroke-width="2.5" stroke-linecap="round"/>
      <path d="M 104.0 120.0 Q 150.0 132.0 196.0 120.0" fill="none" stroke="#f4b942" stroke-width="2.5" stroke-linecap="round"/>
      <animate attributeName="opacity" calcMode="discrete" dur="3.20s" repeatCount="indefinite" keyTimes="0.0000;0.0208;0.0417;0.0625;0.0833;0.1042;0.1250;0.1458;0.1667;0.1875;0.2083;0.2292;0.2500;0.2708;0.2917;0.3125;0.3333;0.3542;0.3750;0.3958;0.4167;0.4375;0.4583;0.4792;0.5000;0.5208;0.5417;0.5625;0.5833;0.6042;0.6250;0.6458;0.6667;0.6875;0.7083;0.7292;0.7500;0.7708;0.7917;0.8125;0.8333;0.8542;0.8750;0.8958;0.9167;0.9375;0.9583;0.9792;1" values="0;0;0;0;0;0;0;0;0;0;0;0;0;0;0;0;0;0;0;0;0;0;0;0;0;0;0;0;0;0;0;0;0;0;0;0;0;0;0;0;0;0;0;0;0;0;1;0;0"/>
    </g>
    <g opacity="0">
      <path d="M 104.0 120.0 Q 150.0 112.0 196.0 120.0 L 196.0 120.0 Q 150.0 145.2 104.0 120.0 Z" fill="#05070b"/>
      <path d="M 104.0 120.0 Q 150.0 112.0 196.0 120.0" fill="none" stroke="#f4b942" stroke-width="2.5" stroke-linecap="round"/>
      <path d="M 104.0 120.0 Q 150.0 145.2 196.0 120.0" fill="none" stroke="#f4b942" stroke-width="2.5" stroke-linecap="round"/>
      <animate attributeName="opacity" calcMode="discrete" dur="3.20s" repeatCount="indefinite" keyTimes="0.0000;0.0208;0.0417;0.0625;0.0833;0.1042;0.1250;0.1458;0.1667;0.1875;0.2083;0.2292;0.2500;0.2708;0.2917;0.3125;0.3333;0.3542;0.3750;0.3958;0.4167;0.4375;0.4583;0.4792;0.5000;0.5208;0.5417;0.5625;0.5833;0.6042;0.6250;0.6458;0.6667;0.6875;0.7083;0.7292;0.7500;0.7708;0.7917;0.8125;0.8333;0.8542;0.8750;0.8958;0.9167;0.9375;0.9583;0.9792;1" values="0;0;0;0;0;0;0;0;0;0;0;0;0;0;0;0;0;0;0;0;0;0;0;0;0;1;0;0;0;0;0;0;0;0;0;0;0;0;0;0;0;0;0;0;0;0;0;0;0"/>
    </g>
    <g opacity="0">
      <path d="M 96.0 120.0 Q 150.0 112.0 204.0 120.0 L 204.0 120.0 Q 150.0 132.0 96.0 120.0 Z" fill="#05070b"/>
      <path d="M 96.0 120.0 Q 150.0 112.0 204.0 120.0" fill="none" stroke="#f4b942" stroke-width="2.5" stroke-linecap="round"/>
      <path d="M 96.0 120.0 Q 150.0 132.0 204.0 120.0" fill="none" stroke="#f4b942" stroke-width="2.5" stroke-linecap="round"/>
      <animate attributeName="opacity" calcMode="discrete" dur="3.20s" repeatCount="indefinite" keyTimes="0.0000;0.0208;0.0417;0.0625;0.0833;0.1042;0.1250;0.1458;0.1667;0.1875;0.2083;0.2292;0.2500;0.2708;0.2917;0.3125;0.3333;0.3542;0.3750;0.3958;0.4167;0.4375;0.4583;0.4792;0.5000;0.5208;0.5417;0.5625;0.5833;0.6042;0.6250;0.6458;0.6667;0.6875;0.7083;0.7292;0.7500;0.7708;0.7917;0.8125;0.8333;0.8542;0.8750;0.8958;0.9167;0.9375;0.9583;0.9792;1" values="0;0;0;0;0;0;0;0;0;0;0;0;0;0;0;0;0;0;0;0;0;0;0;0;0;0;0;0;0;0;0;0;0;0;0;0;0;0;0;0;0;0;0;0;0;1;0;0;0"/>
    </g>
    <g opacity="0">
      <path d="M 104.0 120.0 Q 150.0 112.5 196.0 120.0 L 196.0 120.0 Q 150.0 132.0 104.0 120.0 Z" fill="#05070b"/>
      <path d="M 104.0 120.0 Q 150.0 112.5 196.0 120.0" fill="none" stroke="#f4b942" stroke-width="2.5" stroke-linecap="round"/>
      <path d="M 104.0 120.0 Q 150.0 132.0 196.0 120.0" fill="none" stroke="#f4b942" stroke-width="2.5" stroke-linecap="round"/>
      <animate attributeName="opacity" calcMode="discrete" dur="3.20s" repeatCount="indefinite" keyTimes="0.0000;0.0208;0.0417;0.0625;0.0833;0.1042;0.1250;0.1458;0.1667;0.1875;0.2083;0.2292;0.2500;0.2708;0.2917;0.3125;0.3333;0.3542;0.3750;0.3958;0.4167;0.4375;0.4583;0.4792;0.5000;0.5208;0.5417;0.5625;0.5833;0.6042;0.6250;0.6458;0.6667;0.6875;0.7083;0.7292;0.7500;0.7708;0.7917;0.8125;0.8333;0.8542;0.8750;0.8958;0.9167;0.9375;0.9583;0.9792;1" values="0;0;0;0;0;0;0;1;0;0;0;0;0;0;0;0;0;0;0;0;0;0;0;0;1;0;0;0;0;0;0;0;0;0;0;0;0;0;0;0;0;0;0;0;0;0;0;0;0"/>
    </g>
    <g opacity="0">
      <path d="M 98.0 120.0 Q 150.0 112.0 202.0 120.0 L 202.0 120.0 Q 150.0 176.0 98.0 120.0 Z" fill="#05070b"/>
      <path d="M 98.0 120.0 Q 150.0 112.0 202.0 120.0" fill="none" stroke="#f4b942" stroke-width="2.5" stroke-linecap="round"/>
      <path d="M 98.0 120.0 Q 150.0 176.0 202.0 120.0" fill="none" stroke="#f4b942" stroke-width="2.5" stroke-linecap="round"/>
      <animate attributeName="opacity" calcMode="discrete" dur="3.20s" repeatCount="indefinite" keyTimes="0.0000;0.0208;0.0417;0.0625;0.0833;0.1042;0.1250;0.1458;0.1667;0.1875;0.2083;0.2292;0.2500;0.2708;0.2917;0.3125;0.3333;0.3542;0.3750;0.3958;0.4167;0.4375;0.4583;0.4792;0.5000;0.5208;0.5417;0.5625;0.5833;0.6042;0.6250;0.6458;0.6667;0.6875;0.7083;0.7292;0.7500;0.7708;0.7917;0.8125;0.8333;0.8542;0.8750;0.8958;0.9167;0.9375;0.9583;0.9792;1" values="0;0;1;1;0;0;0;0;1;1;1;0;0;0;0;0;0;0;0;0;0;0;0;0;0;0;0;1;1;1;1;1;1;1;1;1;1;1;1;1;1;0;0;0;0;0;0;0;0"/>
    </g>
    <g opacity="0">
      <path d="M 93.0 120.0 Q 150.0 112.0 207.0 120.0 L 207.0 120.0 Q 150.0 150.5 93.0 120.0 Z" fill="#05070b"/>
      <path d="M 93.0 120.0 Q 150.0 112.0 207.0 120.0" fill="none" stroke="#f4b942" stroke-width="2.5" stroke-linecap="round"/>
      <path d="M 93.0 120.0 Q 150.0 150.5 207.0 120.0" fill="none" stroke="#f4b942" stroke-width="2.5" stroke-linecap="round"/>
      <animate attributeName="opacity" calcMode="discrete" dur="3.20s" repeatCount="indefinite" keyTimes="0.0000;0.0208;0.0417;0.0625;0.0833;0.1042;0.1250;0.1458;0.1667;0.1875;0.2083;0.2292;0.2500;0.2708;0.2917;0.3125;0.3333;0.3542;0.3750;0.3958;0.4167;0.4375;0.4583;0.4792;0.5000;0.5208;0.5417;0.5625;0.5833;0.6042;0.6250;0.6458;0.6667;0.6875;0.7083;0.7292;0.7500;0.7708;0.7917;0.8125;0.8333;0.8542;0.8750;0.8958;0.9167;0.9375;0.9583;0.9792;1" values="0;0;0;0;0;1;1;0;0;0;0;0;0;1;1;1;1;1;1;1;1;0;0;0;0;0;0;0;0;0;0;0;0;0;0;0;0;0;0;0;0;1;1;1;1;0;0;0;0"/>
    </g>
    <g opacity="0">
      <path d="M 84.0 120.0 Q 150.0 112.0 216.0 120.0 L 216.0 120.0 Q 150.0 141.7 84.0 120.0 Z" fill="#05070b"/>
      <path d="M 84.0 120.0 Q 150.0 112.0 216.0 120.0" fill="none" stroke="#f4b942" stroke-width="2.5" stroke-linecap="round"/>
      <path d="M 84.0 120.0 Q 150.0 141.7 216.0 120.0" fill="none" stroke="#f4b942" stroke-width="2.5" stroke-linecap="round"/>
      <animate attributeName="opacity" calcMode="discrete" dur="3.20s" repeatCount="indefinite" keyTimes="0.0000;0.0208;0.0417;0.0625;0.0833;0.1042;0.1250;0.1458;0.1667;0.1875;0.2083;0.2292;0.2500;0.2708;0.2917;0.3125;0.3333;0.3542;0.3750;0.3958;0.4167;0.4375;0.4583;0.4792;0.5000;0.5208;0.5417;0.5625;0.5833;0.6042;0.6250;0.6458;0.6667;0.6875;0.7083;0.7292;0.7500;0.7708;0.7917;0.8125;0.8333;0.8542;0.8750;0.8958;0.9167;0.9375;0.9583;0.9792;1" values="0;0;0;0;0;0;0;0;0;0;0;0;0;0;0;0;0;0;0;0;0;1;1;1;0;0;0;0;0;0;0;0;0;0;0;0;0;0;0;0;0;0;0;0;0;0;0;0;0"/>
    </g>
    <g opacity="0">
      <path d="M 139.0 120.0 Q 150.0 109.0 161.0 120.0 L 161.0 120.0 Q 150.0 144.3 139.0 120.0 Z" fill="#05070b"/>
      <path d="M 139.0 120.0 Q 150.0 109.0 161.0 120.0" fill="none" stroke="#f4b942" stroke-width="2.5" stroke-linecap="round"/>
      <path d="M 139.0 120.0 Q 150.0 144.3 161.0 120.0" fill="none" stroke="#f4b942" stroke-width="2.5" stroke-linecap="round"/>
      <animate attributeName="opacity" calcMode="discrete" dur="3.20s" repeatCount="indefinite" keyTimes="0.0000;0.0208;0.0417;0.0625;0.0833;0.1042;0.1250;0.1458;0.1667;0.1875;0.2083;0.2292;0.2500;0.2708;0.2917;0.3125;0.3333;0.3542;0.3750;0.3958;0.4167;0.4375;0.4583;0.4792;0.5000;0.5208;0.5417;0.5625;0.5833;0.6042;0.6250;0.6458;0.6667;0.6875;0.7083;0.7292;0.7500;0.7708;0.7917;0.8125;0.8333;0.8542;0.8750;0.8958;0.9167;0.9375;0.9583;0.9792;1" values="0;0;0;0;0;0;0;0;0;0;0;1;1;0;0;0;0;0;0;0;0;0;0;0;0;0;0;0;0;0;0;0;0;0;0;0;0;0;0;0;0;0;0;0;0;0;0;0;0"/>
    </g>
  </g>
  <text x="320" y="360" text-anchor="middle" font-family="ui-sans-serif,Segoe UI,Helvetica,Arial,sans-serif" font-size="19" fill="#e6edf6" font-weight="600">“open source lip sync from audio + text”</text>
  <text x="320" y="384" text-anchor="middle" font-family="ui-monospace,SFMono-Regular,Menlo,monospace" font-size="12" fill="#7d8aa0">OpenFaceFX &#183; audio + text &#8594; viseme curves &#183; openfacefx.com</text>
  <rect x="118" y="372" width="404" height="2" rx="1" fill="#1e2635"/>
  <rect x="118" y="372" width="0" height="2" rx="1" fill="#f4b942"><animate attributeName="width" dur="3.20s" repeatCount="indefinite" keyTimes="0;1" values="0;404" calcMode="linear"/></rect>
</svg>
